<svg xmlns="http://www.w3.org/2000/svg" xmlns:xlink="http://www.w3.org/1999/xlink" version="1.1" x="0px" y="0px" viewBox="0 0 100 125" style="enable-background:new 0 0 100 100;" xml:space="preserve">
	<path fill="#B71C1C"  d="M11.6,61.4c-0.2,0-0.3,0.1-0.5,0.1c-0.9,0-1.7-0.6-1.9-1.5C8.4,56.6,8,53.3,8,49.9c0-1.1,0.9-2,2-2c1.1,0,2,0.9,2,2  c0,3.1,0.4,6.1,1.1,9.1C13.4,60,12.7,61.1,11.6,61.4z M10.7,42.2c0.2,0,0.3,0.1,0.5,0.1c0.9,0,1.7-0.6,1.9-1.5  c0.7-3,1.8-5.8,3.2-8.6c0.5-1,0.1-2.2-0.8-2.7c-1-0.5-2.2-0.1-2.7,0.8c-1.6,3-2.8,6.2-3.6,9.5C8.9,40.9,9.6,42,10.7,42.2z M20,25.3  c0.6,0,1.1-0.2,1.5-0.7c2-2.3,4.3-4.3,6.9-6.1c0.9-0.6,1.1-1.9,0.5-2.8c-0.6-0.9-1.9-1.1-2.8-0.5c-2.8,1.9-5.3,4.2-7.6,6.7  c-0.7,0.8-0.7,2.1,0.2,2.8C19.1,25.2,19.6,25.3,20,25.3z M54.5,12.1c3,0.4,6,1.1,8.9,2.2c0.2,0.1,0.5,0.1,0.7,0.1  c0.8,0,1.6-0.5,1.9-1.3c0.4-1-0.1-2.2-1.2-2.6c-3.2-1.2-6.5-2-9.8-2.4c-1.1-0.1-2.1,0.7-2.2,1.7C52.7,11,53.4,12,54.5,12.1z   M35.8,14.5c0.2,0,0.5,0,0.7-0.1c2.9-1.1,5.8-1.8,8.9-2.2c1.1-0.1,1.9-1.1,1.7-2.2C47,8.8,46,8,44.9,8.2c-3.4,0.4-6.7,1.2-9.8,2.4  c-1,0.4-1.6,1.5-1.2,2.6C34.2,14,35,14.5,35.8,14.5z M86.9,40.7c0.2,0.9,1,1.5,1.9,1.5c0.2,0,0.3,0,0.5-0.1c1.1-0.3,1.7-1.4,1.5-2.4  c-0.8-3.3-2-6.5-3.6-9.5c-0.5-1-1.7-1.4-2.7-0.8s-1.4,1.7-0.8,2.7C85.1,34.8,86.2,37.7,86.9,40.7z M71.5,18.6  c2.5,1.7,4.8,3.8,6.9,6.1c0.4,0.4,0.9,0.7,1.5,0.7c0.5,0,0.9-0.2,1.3-0.5c0.8-0.7,0.9-2,0.2-2.8c-2.2-2.5-4.8-4.8-7.6-6.7  c-0.9-0.6-2.2-0.4-2.8,0.5C70.4,16.7,70.6,17.9,71.5,18.6z M36.5,85.4c-2.9-1.1-5.6-2.5-8.1-4.3c-0.9-0.6-2.2-0.4-2.8,0.5  c-0.6,0.9-0.4,2.2,0.5,2.8c2.8,1.9,5.8,3.5,9,4.7c0.2,0.1,0.5,0.1,0.7,0.1c0.8,0,1.6-0.5,1.9-1.3C38,86.9,37.5,85.8,36.5,85.4z   M90,47.8C90,47.8,90,47.8,90,47.8c-1.1,0-2,0.9-2,2c0,0,0,0.1,0,0.1c0,3.1-0.4,6.1-1.1,9.1c-0.3,1.1,0.4,2.2,1.5,2.4  c0.2,0,0.3,0.1,0.5,0.1c0.9,0,1.7-0.6,1.9-1.5c0.8-3.3,1.2-6.6,1.2-10.1c0,0,0-0.1,0-0.1C92,48.7,91.1,47.8,90,47.8z M54.5,87.6  c-1.5,0.2-3,0.3-4.6,0.3c-1.5,0-3-0.1-4.5-0.3c-1.1-0.1-2.1,0.6-2.2,1.7c-0.1,1.1,0.6,2.1,1.7,2.2c1.7,0.2,3.3,0.3,5.1,0.3  c1.7,0,3.4-0.1,5-0.3c1.1-0.1,1.9-1.1,1.7-2.2C56.6,88.2,55.6,87.5,54.5,87.6z M16.3,67.5c-0.5-1-1.7-1.4-2.7-0.8  c-1,0.5-1.4,1.7-0.8,2.7c1.6,3,3.5,5.8,5.8,8.3c0.4,0.4,0.9,0.7,1.5,0.7c0.5,0,0.9-0.2,1.3-0.5c0.8-0.7,0.9-2,0.2-2.8  C19.5,72.7,17.8,70.2,16.3,67.5z M64.8,84.8c-0.5,0.2-0.9,0.4-1.4,0.6c-1,0.4-1.6,1.5-1.2,2.6c0.3,0.8,1.1,1.3,1.9,1.3  c0.2,0,0.5,0,0.7-0.1c0.9-0.3,1.8-0.7,2.7-1.1C66.5,87.1,65.6,86,64.8,84.8z M50,85.9c4.8,0,9.5-1,13.9-2.8  c-0.6-1.2-0.9-2.5-1.2-3.9c-4,1.7-8.3,2.6-12.7,2.6c0,0,0,0-0.1,0c-8.5,0-16.6-3.4-22.6-9.4c-6-6.1-9.3-14.1-9.3-22.6  s3.4-16.6,9.4-22.6c6-6,14.1-9.3,22.6-9.3c0,0,0,0,0.1,0c8.5,0,16.6,3.4,22.6,9.4c6,6.1,9.3,14.1,9.3,22.6c0,4.2-0.8,8.3-2.4,12.1  c1.4,0.2,2.7,0.6,3.9,1.1C85.1,59,86,54.5,86,49.9c0-9.6-3.7-18.7-10.5-25.5S59.7,13.9,50.1,13.9c0,0,0,0-0.1,0  c-9.6,0-18.6,3.7-25.4,10.5C17.8,31.1,14,40.2,14,49.8c0,9.6,3.7,18.7,10.5,25.5S40.3,85.8,50,85.9C50,85.9,50,85.9,50,85.9z   M90,76.9c0,6.9-5.6,12.5-12.5,12.5S65,83.8,65,76.9c0-6.9,5.6-12.5,12.5-12.5S90,70,90,76.9z M85.7,72c-0.8-0.8-2-0.8-2.8,0  l-7.8,7.8l-3-3c-0.8-0.8-2-0.8-2.8,0c-0.8,0.8-0.8,2,0,2.8l4.4,4.4c0.4,0.4,0.9,0.6,1.4,0.6s1-0.2,1.4-0.6l9.2-9.2  C86.5,74.1,86.5,72.8,85.7,72z M62.1,32.6c0-1.4-1.2-2.6-2.6-2.6h-19c-1.4,0-2.6,1.2-2.6,2.6c0,1.4,1.2,2.6,2.6,2.6  c3.4,0,6.5,1.5,8,3.6h-8c-1.4,0-2.6,1.2-2.6,2.6c0,1.4,1.2,2.6,2.6,2.6h8.6c-1.3,2.5-4.7,4.4-8.6,4.4c-1,0-1.9,0.6-2.4,1.5  c-0.4,0.9-0.3,2,0.4,2.8l14.1,16.3c0.5,0.6,1.2,0.9,2,0.9c0.6,0,1.2-0.2,1.7-0.6c1.1-0.9,1.2-2.6,0.3-3.7l-11-12.8  c4.6-1.4,8.1-4.8,9-8.9h4.9c1.4,0,2.6-1.2,2.6-2.6c0-1.4-1.2-2.6-2.6-2.6h-5.2c-0.4-1.3-1.1-2.5-1.9-3.6h7.1  C60.9,35.2,62.1,34,62.1,32.6z"/>
</svg>